<?xml version="1.0" encoding="UTF-8" standalone="no"?>
<svg width="22px" height="22px" viewBox="0 0 22 22" version="1.1" xmlns="http://www.w3.org/2000/svg" xmlns:xlink="http://www.w3.org/1999/xlink">
    <!-- Generator: Sketch 42 (36781) - http://www.bohemiancoding.com/sketch -->
    <title>Shape</title>
    <desc>Created with Sketch.</desc>
    <defs></defs>
    <g id="Page-1" stroke="none" stroke-width="1" fill="none" fill-rule="evenodd">
        <path d="M18.588,4.044 L12.074,4.044 C11.632,4.044 11.217,3.809 10.989,3.43 L10.197,2.11 C9.742,1.353 8.911,0.882 8.028,0.882 L3.412,0.882 C1.669,0.882 0.25,2.3 0.25,4.044 L0.25,17.956 C0.25,19.699 1.668,21.118 3.412,21.118 L18.588,21.118 C20.331,21.118 21.75,19.7 21.75,17.956 L21.75,7.206 C21.75,5.463 20.332,4.044 18.588,4.044 Z M20.485,17.956 C20.485,19.002 19.634,19.853 18.588,19.853 L3.412,19.853 C2.366,19.853 1.515,19.002 1.515,17.956 L1.515,4.044 C1.515,2.998 2.366,2.147 3.412,2.147 L8.029,2.147 C8.471,2.147 8.886,2.382 9.114,2.761 L9.906,4.081 C10.361,4.838 11.192,5.309 12.075,5.309 L18.589,5.309 C19.635,5.309 20.486,6.16 20.486,7.206 L20.486,17.956 L20.485,17.956 Z" id="Shape" fill="#505050" fill-rule="nonzero"></path>
    </g>
</svg>