<?xml version="1.0" encoding="UTF-8" standalone="no"?>
<svg width="26px" height="22px" viewBox="0 0 26 22" version="1.1" xmlns="http://www.w3.org/2000/svg" xmlns:xlink="http://www.w3.org/1999/xlink">
    <!-- Generator: Sketch 42 (36781) - http://www.bohemiancoding.com/sketch -->
    <title>Group</title>
    <desc>Created with Sketch.</desc>
    <defs></defs>
    <g id="Page-1" stroke="none" stroke-width="1" fill="none" fill-rule="evenodd">
        <g id="Group" fill="#505050">
            <path d="M18.588,4.044 L12.074,4.044 C11.632,4.044 11.217,3.809 10.989,3.43 L10.197,2.11 C9.742,1.353 8.911,0.882 8.028,0.882 L3.412,0.882 C1.669,0.882 0.25,2.3 0.25,4.044 L0.25,17.956 C0.25,19.699 1.668,21.118 3.412,21.118 L18.588,21.118 C20.331,21.118 21.75,19.7 21.75,17.956 L21.75,7.206 C21.75,5.463 20.332,4.044 18.588,4.044 Z M18.588,19.853 L3.412,19.853 C2.366,19.853 1.515,19.002 1.515,17.956 L1.515,4.044 C1.515,2.998 2.366,2.147 3.412,2.147 L8.029,2.147 C8.471,2.147 8.886,2.382 9.114,2.761 L9.906,4.081 C10.361,4.838 11.192,5.309 12.075,5.309 L18.589,5.309 C19.635,5.309 20.486,6.16 20.486,7.206 L20.486,17.956 C20.485,19.002 19.634,19.853 18.588,19.853 Z" id="Shape" fill-rule="nonzero"></path>
            <path d="M3.99420437,20.2697404 C2.89283571,20.2697404 2.41137518,19.4646885 2.91167409,18.4856148 L7.35806634,9.7841256 C7.86157004,8.79878024 9.17305363,8 10.2684784,8 L23.9952065,8 C25.099079,8 25.6104579,8.80505194 25.1315401,9.81044246 L21.0116571,18.459298 C20.5353643,19.4591777 19.2492285,20.2697404 18.1550484,20.2697404 L3.99420437,20.2697404 Z" id="Path-2" stroke="#505050" stroke-width="1.3"></path>
        </g>
    </g>
</svg>